<?xml version="1.0" encoding="utf-8"?>
<svg width="130px" height="70px" viewBox="0 0 130 70" xmlns="http://www.w3.org/2000/svg">
  <g id="c2-logo-ru" stroke="none" stroke-width="1" fill="none" fill-rule="evenodd">
    <g id="c2-logo-ru-main" fill="#0DB14B">
      <g id="c2-logo-ru-cloud">
        <path d="M 101.556 15.268 C 97.11 15.268 92.729 15.996 88.871 17.519 C 72.001 -12.064 40.942 3.356 37.411 9.775 C 11.583 2.231 -12.938 31.615 7.725 56.499 L 13.479 51.337 C -5.287 28.703 20.868 -0.019 43.034 13.812 L 43.623 12.29 C 42.707 11.827 41.792 11.364 40.942 10.967 C 45.061 5.275 70.562 -7.564 85.536 19.041 C 84.097 19.835 82.79 20.761 81.613 21.82 L 84.228 22.681 C 87.89 20.1 92.533 18.908 97.306 18.908 C 109.272 18.908 119.014 29.166 119.014 41.873 C 119.014 54.58 111.037 63.382 99.006 65.235 C 88.871 65.764 85.078 63.779 85.078 63.779 C 89.786 67.154 95.148 70 101.556 70 C 117.249 70 130 57.757 130 42.601 C 130 27.578 117.249 15.268 101.556 15.268 L 101.556 15.268 L 101.556 15.268 Z" id="c2-logo-ru-cloud-shape"/>
      </g>
      <g id="c2-logo-ru-name">
        <path d="M 42.599 31.318 L 50.632 31.318 C 56.25 31.318 59.322 34.248 59.322 38.516 C 59.322 42.72 56.121 45.778 50.437 45.778 L 47.235 45.778 L 47.235 50.744 L 42.662 50.744 L 42.662 31.318 L 42.599 31.318 L 42.599 31.318 L 42.599 31.318 Z M 47.169 35.267 L 47.169 41.893 L 49.915 41.893 C 53.245 41.893 54.553 40.619 54.553 38.516 C 54.553 36.86 53.442 35.267 50.175 35.267 L 47.169 35.267 L 47.169 35.267 L 47.169 35.267 L 47.169 35.267 Z M 27.572 39.855 L 34.758 31.318 L 40.181 31.318 L 32.079 40.554 L 40.441 50.744 L 34.629 50.744 L 27.572 41.893 L 27.572 50.744 L 23 50.744 L 23 31.318 L 27.572 31.318 L 27.572 39.855 L 27.572 39.855 L 27.572 39.855 L 27.572 39.855 Z M 89.565 39.855 L 96.751 31.318 L 102.174 31.318 L 94.138 40.491 L 102.5 50.682 L 96.688 50.682 L 89.565 41.893 L 89.565 50.744 L 84.993 50.744 L 84.993 31.318 L 89.565 31.318 L 89.565 39.855 L 89.565 39.855 L 89.565 39.855 L 89.565 39.855 Z M 71.486 46.86 C 68.013 46.86 65.83 44.184 65.83 41 C 65.83 37.816 68.013 35.14 71.486 35.14 C 74.955 35.14 77.14 37.752 77.14 41 C 77.14 44.248 74.955 46.86 71.486 46.86 L 71.486 46.86 L 71.486 46.86 L 71.486 46.86 Z M 61.18 41 C 61.18 35.014 66.012 31 71.491 31 C 76.968 31 81.8 34.885 81.8 41 C 81.8 47.179 77.096 51 71.491 51 C 65.884 51 61.18 46.986 61.18 41 L 61.18 41 L 61.18 41 L 61.18 41 Z" id="c2-logo-ru-name-shape"/>
      </g>
    </g>
  </g>
</svg>
