<?xml version="1.0" encoding="utf-8"?>
<svg width="130px" height="70px" viewBox="0 0 130 70" xmlns="http://www.w3.org/2000/svg">
  <g id="c2-logo-en" stroke="none" stroke-width="1" fill="none" fill-rule="evenodd">
    <g id="c2-logo-en-main" fill="#0DB14B">
      <g id="c2-logo-en-cloud">
        <path d="M 101.557 15.268 C 97.11 15.268 92.729 15.997 88.872 17.519 C 72.002 -12.064 40.942 3.355 37.411 9.776 C 11.583 2.231 -12.937 31.615 7.725 56.499 L 13.479 51.337 C -5.287 28.703 20.868 -0.019 43.035 13.813 L 43.623 12.29 C 42.708 11.828 41.792 11.364 40.942 10.967 C 45.062 5.276 70.563 -7.564 85.537 19.041 C 84.098 19.835 82.79 20.761 81.614 21.82 L 84.229 22.68 C 87.891 20.099 92.533 18.909 97.307 18.909 C 109.273 18.909 119.015 29.167 119.015 41.874 C 119.015 54.58 111.038 63.382 99.007 65.235 C 88.872 65.765 85.079 63.779 85.079 63.779 C 89.787 67.155 95.149 70 101.557 70 C 117.25 70 130 57.757 130 42.602 C 130 27.578 117.25 15.268 101.557 15.268 L 101.557 15.268 L 101.557 15.268 Z" id="c2-logo-en-cloud-shape"/>
      </g>
      <g id="c2-logo-en-name" transform="translate(22.597403, 31.168831)">
        <path d="M 17.62 16.399 L 17.62 16.399 L 17.62 16.399 L 14.023 13.906 C 13.451 14.478 12.76 14.936 12.014 15.249 C 11.33 15.535 10.557 15.694 9.706 15.694 C 6.238 15.694 4.048 13.033 4.048 9.832 C 4.048 6.63 6.219 3.969 9.706 3.969 C 11.356 3.969 12.725 4.545 13.703 5.5 L 17.21 3.038 C 16.4 2.04 15.032 1.116 13.857 0.637 C 12.556 0.107 11.18 -0.169 9.706 -0.169 C 4.24 -0.169 -0.597 3.851 -0.597 9.832 C -0.597 15.811 4.117 19.831 9.706 19.831 C 13.063 19.831 15.884 18.449 17.62 16.399 Z M 75.867 13.906 L 75.867 13.906 L 75.867 13.906 L 79.403 16.399 C 77.666 18.449 74.906 19.831 71.549 19.831 C 65.961 19.831 61.246 15.811 61.246 9.832 C 61.246 3.851 66.083 -0.169 71.549 -0.169 C 73.022 -0.169 74.398 0.107 75.699 0.637 C 76.874 1.116 78.181 2.04 78.993 3.038 L 75.545 5.5 C 74.567 4.545 73.199 3.969 71.549 3.969 C 68.061 3.969 65.892 6.63 65.892 9.832 C 65.892 13.033 68.08 15.694 71.549 15.694 C 72.4 15.694 73.174 15.535 73.857 15.249 C 74.602 14.936 75.293 14.478 75.867 13.906 Z M 24.699 10.333 L 24.699 10.333 L 24.699 10.333 L 24.699 4.127 L 27.791 4.127 C 31.039 4.127 31.935 5.566 31.935 7.221 C 31.935 9.3 31.085 10.333 27.654 10.333 L 24.699 10.333 Z M 31.264 19.553 L 31.264 19.553 L 31.264 19.553 L 36.729 19.553 L 32.244 13.253 C 33.278 12.789 34.37 12.125 34.941 11.511 C 36.075 10.289 36.588 9.037 36.588 7.212 C 36.588 3.644 34.485 1.254 30.482 0.469 C 29.686 0.313 27.984 0.208 27.056 0.208 L 20.162 0.208 L 20.162 19.553 L 24.699 19.553 L 24.699 14.112 L 27.679 14.112 L 31.264 19.553 Z M 54.541 9.832 L 54.541 9.832 L 54.541 9.832 C 54.541 13.066 52.35 15.694 48.886 15.694 C 45.418 15.694 43.229 13.033 43.229 9.832 C 43.229 6.63 45.399 3.969 48.886 3.969 C 52.374 3.969 54.541 6.597 54.541 9.832 Z M 59.199 9.832 L 59.199 9.832 L 59.199 9.832 C 59.199 3.681 54.351 -0.169 48.886 -0.169 C 43.42 -0.169 38.582 3.851 38.582 9.832 C 38.582 15.811 43.297 19.831 48.886 19.831 C 54.474 19.831 59.199 15.981 59.199 9.832 Z" id="c2-logo-en-name-shape"/>
      </g>
    </g>
  </g>
</svg>