<?xml version="1.0" encoding="UTF-8" standalone="no"?>
<svg width="124px" height="58px" viewBox="0 0 124 58" version="1.1" xmlns="http://www.w3.org/2000/svg" xmlns:xlink="http://www.w3.org/1999/xlink">
    <title>c2-christmas-logo-en</title>
    <defs></defs>
    <g id="Page-1" stroke="none" stroke-width="1" fill="none" fill-rule="evenodd">
        <g id="c2-christmas-logo-en" transform="translate(0.000000, -11.000000)">
            <path d="M81.1472093,25.7386047 C77.6009302,25.7386047 74.1068023,26.3122674 71.0298837,27.5117442 C57.5748837,4.20017442 32.8030814,16.3513953 29.9869186,21.4100581 C9.3872093,15.4648256 -10.1694767,38.6199419 6.3102907,58.2287791 L10.899593,54.1609884 C-4.0677907,36.3252907 16.7926744,13.691686 34.4719186,24.5912791 L34.9412791,23.3918023 C34.2111628,23.0267442 33.4810465,22.661686 32.8030814,22.3487791 C36.0886047,17.8637791 56.4275581,7.74645349 68.3701744,28.7112209 C67.2228488,29.3370349 66.1798256,30.0671512 65.2411047,30.9015698 L67.3271512,31.5795349 C70.2476163,29.5456395 73.9503488,28.6069186 77.7573837,28.6069186 C87.3010465,28.6069186 95.0715698,36.6903488 95.0715698,46.7033721 C95.0715698,56.7163953 88.7091279,63.6525 79.113314,65.1127326 C71.0298837,65.5299419 68.0051163,63.965407 68.0051163,63.965407 C71.76,66.6251163 76.0363953,68.8676163 81.1472093,68.8676163 C93.6634884,68.8676163 103.832965,59.2196512 103.832965,47.2770349 C103.832965,35.4387209 93.6634884,25.7386047 81.1472093,25.7386047 L81.1472093,25.7386047 L81.1472093,25.7386047 Z" id="Cloud" fill="#0DB14B"></path>
            <path d="M79.2946706,50.0880398 C78.8331771,50.5568272 78.2761339,50.9317321 77.6750151,51.1880595 C77.1244323,51.4229221 76.5009104,51.5526488 75.8154955,51.5526488 C73.0203804,51.5526488 71.2563063,49.3735533 71.2563063,46.7530746 C71.2563063,44.1313455 73.0049593,41.9518333 75.8154955,41.9518333 C77.1446466,41.9518333 78.247688,42.4236424 79.0360509,43.205441 L81.8139733,41.190145 C81.1606507,40.3720855 80.1073119,39.6155029 79.1601508,39.2239263 C78.1119177,38.7903579 77.002833,38.5640396 75.8154955,38.5640396 C71.4103113,38.5640396 67.5119466,41.85545 67.5119466,46.7530746 C67.5119466,51.6484068 71.3115312,54.9398173 75.8154955,54.9398173 C78.5206874,54.9398173 80.7451087,53.8087466 82.1444896,52.1294896 L79.2946706,50.0880398 L79.2946706,50.0880398 L79.2946706,50.0880398 Z M38.0595122,47.1634068 L40.4409604,47.1634068 C43.2067955,47.1634068 43.8906478,46.3175264 43.8906478,44.614929 C43.8906478,43.2600408 43.1683464,42.0809348 40.551202,42.0809348 L38.0595122,42.0809348 L38.0595122,47.1634068 L38.0595122,47.1634068 L38.0595122,47.1634068 Z M43.3503806,54.7120402 L40.4611748,50.2565282 L38.0595122,50.2565282 L38.0595122,54.7120402 L34.4033041,54.7120402 L34.4033041,38.8723618 L39.9596693,38.8723618 C40.7074992,38.8723618 42.078434,38.9586379 42.7201903,39.0863848 C45.9462685,39.728662 47.641051,41.6855029 47.641051,44.6080519 C47.641051,46.1015237 47.2280097,47.1272501 46.3134627,48.1272395 C45.853428,48.6303081 44.9729538,49.1733887 44.140515,49.5538161 L47.755148,54.7120402 L43.3503806,54.7120402 L43.3503806,54.7120402 L43.3503806,54.7120402 Z M32.3548731,52.1294896 C30.9555965,53.8087466 28.6824101,54.9398173 25.9773226,54.9398173 C21.4731501,54.9398173 17.6736696,51.6484068 17.6736696,46.7530746 C17.6736696,41.85545 21.5720341,38.5640396 25.9773226,38.5640396 C27.1647644,38.5640396 28.2736409,38.7903579 29.3218741,39.2239263 C30.2689308,39.6155029 31.3709302,40.3720855 32.0243567,41.190145 L29.1976699,43.205441 C28.4095152,42.4236424 27.3063697,41.9518333 25.9773226,41.9518333 C23.1667865,41.9518333 21.4180293,44.1313455 21.4180293,46.7530746 C21.4180293,49.3735533 23.1821036,51.5526488 25.9773226,51.5526488 C26.6626336,51.5526488 27.2861553,51.4229221 27.8368423,51.1880595 C28.4378571,50.9317321 28.9947962,50.5568272 29.4563938,50.0880398 L32.3548731,52.1294896 L32.3548731,52.1294896 L32.3548731,52.1294896 Z" id="CROC-en" fill="#0DB14B"></path>
            <g id="Santa's-hat" transform="translate(64.988372, 0.000000)">
                <path d="M54.3966165,31.4301026 C54.3966165,31.4301026 54.5120328,31.4646676 54.7282079,31.5293775 C54.7820103,31.5471462 54.8430975,31.5604064 54.9084855,31.5869268 C54.9740489,31.6132705 55.0455807,31.6419125 55.1229052,31.6729414 C55.1996154,31.7051196 55.2845758,31.7344689 55.3702384,31.7754871 C55.4548477,31.8188038 55.5445477,31.8647726 55.639426,31.913305 C56.0121811,32.1167168 56.4577844,32.3941205 56.8852196,32.8168563 C56.943235,32.8650351 56.9903669,32.9251481 57.0445204,32.9805758 C57.0974452,33.0375063 57.1511598,33.0951441 57.2055766,33.1536659 C57.2627142,33.2104196 57.3097584,33.2767207 57.3603134,33.3418726 C57.410605,33.4075549 57.4615111,33.4740327 57.5131193,33.5413947 C57.5677116,33.6071653 57.6092263,33.6827486 57.6574993,33.7555914 C57.7045435,33.8295834 57.7521143,33.904371 57.8002995,33.9801311 C57.8475193,34.05651 57.8842067,34.1397841 57.9275647,34.2212019 C57.968465,34.303592 58.0134905,34.3858054 58.0526355,34.4717316 C58.3566674,35.1611746 58.5373839,35.9963031 58.4733125,36.8821742 C58.4734002,36.9378671 58.4637456,36.9924992 58.4566364,37.0477501 C58.4490882,37.103001 58.44154,37.1584287 58.4339041,37.2140332 C58.4261805,37.2698145 58.4184568,37.3256843 58.4108209,37.3817308 L58.3989721,37.4660658 C58.402044,37.4549272 58.3929161,37.4934702 58.3930915,37.4926746 L58.3907218,37.5023988 L58.3762399,37.5607437 C58.3212087,37.76999 58.2856623,37.9709265 58.1924516,38.2052788 C58.1501469,38.3175486 58.1139861,38.437421 58.0640455,38.5451824 C58.0129639,38.6522365 57.9617067,38.7598211 57.9100986,38.8679361 C57.8625277,38.9786147 57.7941557,39.0780664 57.7329806,39.1825569 L57.6384535,39.3384087 L57.5906193,39.4164672 L57.536027,39.4899287 C57.4627398,39.5879659 57.3890139,39.6863568 57.3150245,39.7851896 C57.2397187,39.8831385 57.1511598,39.9701255 57.0688325,40.0636542 L56.9422695,40.2018257 C56.897244,40.245054 56.850112,40.2863375 56.8039455,40.3287702 C56.7099448,40.4116907 56.6196305,40.5005342 56.5206271,40.5790347 C56.1262808,40.8971032 55.6775177,41.1536442 55.2005808,41.3573211 C54.7191677,41.5522464 54.2050167,41.6727376 53.6799823,41.7297565 L53.2838807,41.7498236 L53.1846139,41.7541553 L53.0854349,41.7494701 L52.8867258,41.7396574 L52.6877534,41.7290493 C52.6211367,41.7272813 52.5561877,41.7117226 52.4903609,41.7035013 L52.2932317,41.6733564 L52.1945793,41.6578861 L52.1453408,41.6501068 L52.1206777,41.6462171 L52.1083023,41.6442722 C52.0926794,41.6406478 52.1258561,41.6495763 52.0701228,41.6356973 L51.7201876,41.5467655 L51.6326819,41.5244883 C51.604157,41.5177698 51.5746666,41.5099905 51.5401734,41.4966419 L51.342342,41.4254787 L51.1445983,41.3524591 L51.0458582,41.3153305 L50.9552805,41.2719254 L50.5928822,41.0978629 C50.1241078,40.8384046 49.6850871,40.522281 49.3032918,40.1458676 C48.9300101,39.7632661 48.5991209,39.3384971 48.3474871,38.871207 C48.2835912,38.755401 48.231983,38.633407 48.1745821,38.5146839 C48.1467593,38.4548361 48.1179711,38.3954303 48.0928691,38.3346985 L48.0280078,38.1486134 C47.9871952,38.0240558 47.9381323,37.9021502 47.9058333,37.7759129 C47.8754652,37.6490568 47.8452727,37.5225543 47.8150801,37.3966706 C47.7271356,36.8878318 47.6800914,36.3739542 47.7397743,35.8787292 C47.7508332,35.6293487 47.8118327,35.3901343 47.856156,35.1524228 L47.8650207,35.1080453 L47.8695847,35.0858565 L47.8717789,35.0748063 C47.8706379,35.0779004 47.889245,35.006472 47.8827501,35.0322852 L47.9070621,34.95626 C47.9231238,34.9056944 47.9392733,34.8553055 47.955335,34.8050051 C47.971309,34.7547931 47.9873707,34.7046694 48.0032569,34.6547226 C48.0197575,34.6043338 48.0321329,34.5580998 48.059078,34.496926 C48.1086675,34.3827997 48.157906,34.2695575 48.2067933,34.1570224 C48.2322463,34.1021251 48.2550663,34.0436033 48.2828013,33.9930377 C48.311414,33.9432677 48.3399389,33.8936745 48.3683761,33.8443464 C48.4260404,33.7466628 48.4832658,33.6497748 48.5401401,33.5536825 C48.6028072,33.4615681 48.6705649,33.3737855 48.7357773,33.286268 C48.9925895,32.9321318 49.3069781,32.6488051 49.6084647,32.3933249 C50.2361011,31.9024316 50.902268,31.6160109 51.4973421,31.4545898 C52.0938204,31.2861851 52.6291237,31.2595762 53.0589287,31.2600182 C53.1669724,31.2628471 53.26896,31.2675324 53.3645404,31.2685932 C53.4601209,31.2734553 53.5492065,31.2883067 53.6320605,31.2967048 C53.7147389,31.3063406 53.7911857,31.3151807 53.8613132,31.3233137 C53.9312651,31.3308278 53.9934056,31.3485081 54.0497533,31.3584975 L54.3950366,31.4295722 L54.3966165,31.4301026 L54.3966165,31.4301026 Z" id="Pompon2-2" fill="#F10C1E" transform="translate(53.099627, 36.507084) rotate(36.000000) translate(-53.099627, -36.507084) "></path>
                <path d="M54.5231964,31.8674354 C54.5230208,31.8674354 54.4058492,31.8505507 54.1857245,31.8187262 C54.1306055,31.8122729 54.0698693,31.7985706 54.0017606,31.7953882 C53.9334763,31.7936202 53.8591359,31.7915869 53.7786517,31.7894653 C53.698343,31.7887581 53.6123294,31.782128 53.5206107,31.7858408 C53.4288043,31.7923825 53.331644,31.8029023 53.2293053,31.8118309 C52.8225836,31.8581532 52.328444,31.9654726 51.8278972,32.2249309 C51.3282281,32.4789967 50.8186411,32.8599185 50.3952433,33.369995 C50.3448639,33.435412 50.2939578,33.5014479 50.2425252,33.568191 C50.1916191,33.6346689 50.1371146,33.6985832 50.0949854,33.7734592 C50.0070409,33.919852 49.9061943,34.0579351 49.832205,34.2167925 C49.7920067,34.2932598 49.7515452,34.3705227 49.7106449,34.4483159 C49.6771171,34.5293801 49.643326,34.6111514 49.6091839,34.6934532 C49.5921567,34.7344715 49.5747784,34.7752245 49.5565224,34.8158008 C49.5392319,34.8562887 49.5306306,34.8956273 49.5170264,34.9354964 C49.4913978,35.0140853 49.4655937,35.093293 49.4395263,35.1730311 C49.42443,35.2073309 49.4131956,35.2632006 49.4009957,35.313501 C49.3887958,35.3645087 49.3765959,35.4156931 49.364396,35.4669659 C49.3521084,35.5183272 49.3398207,35.5697768 49.327533,35.6214917 L49.3090138,35.6991082 C49.3010268,35.7313747 49.3172641,35.6661344 49.3152454,35.675947 L49.3141044,35.6845219 L49.3069951,35.7362368 C49.2839118,35.9202002 49.2461711,36.1040753 49.2455567,36.2932544 C49.2156275,36.6694026 49.250033,37.0547445 49.3197216,37.4379648 C49.340084,37.5334384 49.3607097,37.629354 49.3812477,37.7256232 C49.4024878,37.821804 49.4394385,37.9140067 49.4672613,38.0093919 L49.5116725,38.1520718 L49.5690734,38.2905085 C49.6085695,38.382446 49.6413073,38.4783616 49.6855429,38.5690615 C49.8618709,38.9331871 50.0872618,39.2791904 50.3555717,39.5979661 C50.6303765,39.9113492 50.9559119,40.1824765 51.3119908,40.4139115 L51.589692,40.5710009 L51.6594684,40.6099859 L51.7283671,40.6391584 L51.8661645,40.6989178 L52.0038741,40.7604453 C52.0158985,40.7654841 52.0258164,40.7711418 52.0394206,40.7758271 L52.0825152,40.7891757 L52.1687921,40.8160498 L52.5137244,40.9231923 C52.4653637,40.9106393 52.5060007,40.9208939 52.4977504,40.9185954 L52.5075806,40.9205403 L52.5274164,40.9244299 L52.5669124,40.9322093 L52.6460801,40.9479447 L52.8044154,40.9801229 C52.8575157,40.9891398 52.9096505,41.0058477 52.9634529,41.0089418 L53.1240702,41.0243236 L53.2849509,41.0403243 L53.3654351,41.0485456 L53.4460948,41.048192 L53.7691726,41.0473079 C54.1987143,41.0195499 54.6257106,40.9421102 55.0319057,40.7997839 C55.4341512,40.6490594 55.8171752,40.4516589 56.1647406,40.2052841 C56.2517197,40.144287 56.3307996,40.0732123 56.4144435,40.0081488 C56.4555193,39.9746447 56.4975607,39.9423781 56.5378467,39.9081668 L56.6505421,39.7971346 C56.7241804,39.7219049 56.8048401,39.6530402 56.8731244,39.5733904 C56.9406188,39.4930335 57.0079377,39.4129418 57.0748177,39.3331153 L57.1254604,39.2732675 L57.1695204,39.2089113 L57.2572895,39.0803755 C57.3145149,38.9940073 57.3795518,38.9125012 57.4245772,38.8196796 C57.4741667,38.7292449 57.5236685,38.6393407 57.5727314,38.54979 C57.6210921,38.4600625 57.6517235,38.369451 57.6927116,38.2799887 C57.7767066,38.1136172 57.8332298,37.8899615 57.8976523,37.6893786 L57.9094134,37.6511892 L57.9183658,37.6225471 C57.9202968,37.6157402 57.9119587,37.6472995 57.9163471,37.6296192 L57.9317067,37.5567764 C57.9420634,37.508244 57.9523324,37.4598884 57.9626015,37.4116212 C57.9729582,37.3632656 57.9833149,37.3151752 57.9935839,37.2671732 C58.0035895,37.2189944 58.016316,37.1713461 58.0193002,37.1225484 C58.030008,37.0254836 58.0406281,36.9289493 58.0510726,36.8332105 C58.0555488,36.7852085 58.0641502,36.7373833 58.0652034,36.6894697 C58.0658178,36.6415561 58.0666077,36.5938193 58.0673976,36.5462593 C58.0696797,36.4506974 58.0720494,36.3558426 58.0743314,36.2617834 C58.0695041,36.1679011 58.0606395,36.0748144 58.05432,35.9819928 C58.0481762,35.7952006 58.0073636,35.6165412 57.9800674,35.4376167 C57.9690964,35.3472704 57.9421512,35.261963 57.9195946,35.1760367 C57.8965991,35.0899337 57.8737791,35.0047147 57.8512225,34.9202913 C57.6414545,34.2517995 57.2938892,33.6870026 56.9134982,33.2527746 C56.5341604,32.8132426 56.1082173,32.5228438 55.7457312,32.3216421 C55.6533104,32.2733749 55.5658925,32.2276713 55.4836529,32.1846198 C55.3998335,32.145458 55.3177694,32.1181419 55.2432535,32.0876434 C55.1684743,32.0584709 55.0991368,32.0315085 55.035592,32.0066677 C54.9716961,31.9829761 54.9085902,31.9711303 54.8547,31.9553064 C54.6552888,31.9024424 54.5413646,31.8722091 54.5231964,31.8674354 Z" id="Pompon1-2" fill="#FFFFFF" transform="translate(53.654524, 36.416632) rotate(36.000000) translate(-53.654524, -36.416632) "></path>
                <path d="M49.814469,40.2509755 C49.814469,40.2509755 49.7491476,40.3246308 49.622719,40.4673897 C49.48435,40.6104797 49.2802582,40.8191974 48.9714113,41.0572117 C48.8158841,41.1748948 48.638282,41.3033365 48.4279691,41.4284678 C48.2207668,41.557075 47.9829607,41.6842753 47.7158553,41.8062618 C47.1826479,42.0516417 46.5218078,42.2640835 45.7536038,42.3969942 C44.9853999,42.5261807 44.1065207,42.5704567 43.1667351,42.4687461 C42.6971433,42.4190908 42.2125006,42.3335181 41.7252489,42.2019317 C41.6644428,42.1853799 41.6032353,42.1687454 41.5418271,42.1520281 C41.4812217,42.1334074 41.4203153,42.1146211 41.3592081,42.0958349 C41.2358901,42.0602486 41.1155823,42.0157244 40.9923647,41.9743449 C40.7525517,41.8915861 40.5086249,41.8073376 40.2606845,41.721765 C40.0120416,41.6364407 39.7593852,41.5497094 39.5029158,41.4615713 C39.3743801,41.4179575 39.2449413,41.3740125 39.1144993,41.3296538 C38.9827527,41.2899296 38.850103,41.2498743 38.71645,41.2096535 C38.4491439,41.1296257 38.1780248,41.0485221 37.9031933,40.9663426 C37.765928,40.9252115 37.6277596,40.8839148 37.4885878,40.8422044 C37.3494161,40.8010732 37.2108464,40.7567145 37.0662562,40.7215421 C36.4927121,40.5743141 35.9042173,40.423362 35.3018755,40.2686858 C34.6927106,40.1357752 34.0694981,39.9998025 33.4329404,39.8609331 C32.790864,39.7439949 32.1354423,39.6244913 31.4674781,39.5028357 C30.7946975,39.4049321 30.1091738,39.305125 29.4120106,39.2035799 C29.0615226,39.1641867 28.7081247,39.1243797 28.3517165,39.0843245 C28.1737132,39.0642969 27.9950074,39.0441864 27.8155992,39.0239105 C27.7258952,39.013814 27.6360907,39.0037174 27.546186,38.9936208 C27.4555789,38.9865863 27.3648714,38.9794691 27.2740636,38.9724346 C26.9110331,38.9429724 26.5452933,38.9131792 26.1768443,38.8832206 C25.9928205,38.8679929 25.8080944,38.8526825 25.6227661,38.8372894 C25.4370366,38.8254549 25.250103,38.8187515 25.0628683,38.8091514 C24.6884993,38.7911928 24.3115214,38.7732341 23.9321354,38.7550271 L23.6473702,38.741372 C23.5521474,38.7377305 23.4566236,38.7383099 23.3610998,38.736572 C23.1699519,38.7337581 22.9783022,38.7309444 22.7859502,38.7281305 C22.4016476,38.7218409 22.0149367,38.7155512 21.6260184,38.7091788 C21.2372004,38.7162133 20.8460746,38.7233306 20.4528417,38.730365 C19.6662754,38.7319374 18.8737891,38.7902824 18.0734763,38.8290963 C17.6729185,38.8435791 17.2731634,38.8895102 16.8706992,38.9222827 C16.4686364,38.9591104 16.064065,38.9900622 15.6594936,39.0319381 C15.2562266,39.0819244 14.8511536,39.1319936 14.4446757,39.1822281 C14.2414869,39.2073868 14.0378969,39.2325455 13.8339054,39.2577042 C13.630817,39.2873318 13.4283306,39.3218422 13.2250415,39.3537044 C12.8188647,39.4185873 12.4110824,39.4836358 12.0019957,39.5490152 L11.848676,39.5735946 L11.69646,39.6035533 L11.3917271,39.6635534 C11.1885384,39.7034431 10.9849482,39.7435812 10.7810571,39.7836365 C10.5772663,39.8236917 10.3731745,39.8638297 10.1687817,39.9039677 L9.84097053,39.9681058 L9.68454023,39.9983128 L9.60627497,40.0133749 L9.51647051,40.0281887 C9.26752669,40.0696508 9.03533969,40.0997751 8.79873764,40.1217889 C8.5621356,40.1440511 8.32392818,40.1588649 8.08511868,40.1642442 C7.12998104,40.1881615 6.16290293,40.0822302 5.23465645,39.8389193 C4.30711234,39.596105 3.41870089,39.2089592 2.64648329,38.6807925 C1.87306162,38.1551913 1.22897836,37.4764035 0.800526034,36.7108018 L0.760289644,36.6391326 L0.74032196,36.6031326 C0.728782846,36.581036 0.737913797,36.6022222 0.709417202,36.5442911 L0.648711427,36.41767 L0.61840871,36.3543596 C0.608073677,36.3324285 0.598641705,36.3152147 0.58670123,36.2836008 L0.519573687,36.11229 C0.471209748,35.9942759 0.445422336,35.8914895 0.413012476,35.783241 C0.378395133,35.6763993 0.363243775,35.5667439 0.338760785,35.4582471 C0.257685965,35.0222737 0.259191067,34.5787692 0.329730173,34.1481752 C0.470206346,33.2847525 0.880697793,32.4777713 1.45113139,31.78268 C2.02166534,31.0853543 2.75324518,30.4944563 3.57292365,30.0221518 C4.3928028,29.5476128 5.30579759,29.1996948 6.24879407,28.9595287 L6.60460015,28.8758596 L6.94946916,28.8065904 L7.59044186,28.6791418 C8.0173891,28.5941485 8.44393499,28.5093207 8.86977844,28.4244102 C9.07928859,28.3792239 9.3025454,28.3451273 9.52309298,28.3091272 C9.74374094,28.2730443 9.96428853,28.237127 10.1846355,28.2012097 C10.6257306,28.1295406 11.0661234,28.0579542 11.5056132,27.9865333 C11.6155859,27.9673333 11.7252577,27.9529333 11.8346284,27.9397746 L12.1630416,27.898147 C12.3819838,27.8704228 12.6006249,27.8426986 12.818965,27.8150571 C13.2560466,27.7598569 13.6922251,27.7048224 14.1271996,27.6498705 C15.0010617,27.5647117 15.8728167,27.4924632 16.7392536,27.4173182 C17.6082995,27.3730423 18.472529,27.3242973 19.3314404,27.2905318 C20.1911546,27.2818421 21.0449487,27.2692628 21.8918193,27.264711 C25.279603,27.3007938 28.5479818,27.6060083 31.5870835,28.1130715 C34.6271886,28.6230314 37.4300895,29.3492399 39.938693,30.1560556 C40.5632099,30.3651044 41.174783,30.5669531 41.7671911,30.773188 C42.3518729,30.9939886 42.9232096,31.209658 43.4800973,31.4199481 C44.040497,31.6208038 44.5648744,31.857494 45.081927,32.0710117 C45.3393998,32.1792602 45.5932604,32.2860191 45.8432076,32.3912056 C45.968131,32.4436746 46.0921515,32.4957299 46.2150681,32.5473715 L46.2612246,32.5664887 L46.2935341,32.5802267 L46.3159099,32.5905716 L46.4050119,32.6317027 C46.4644133,32.6590959 46.523313,32.6863235 46.5821123,32.7134684 C47.0838129,32.9508206 47.5265135,33.2138282 47.9310849,33.4939667 C48.3343519,33.7744363 48.6889539,34.0757612 48.9985031,34.3847826 C49.6193074,35.0027426 50.0451509,35.6593511 50.3115539,36.2819456 C50.4460097,36.593367 50.5323023,36.8992436 50.5893957,37.1890649 C50.6442818,37.4792173 50.6732801,37.7545559 50.6639485,38.0109427 C50.657326,38.2669984 50.6291304,38.5034404 50.5790607,38.7164615 C50.5361151,38.9303931 50.469088,39.1202418 50.4028635,39.2877457 C50.2658992,39.6224223 50.105656,39.8597745 49.997088,40.0173473 C49.8777836,40.1700373 49.8161748,40.2488237 49.8161748,40.2488237 L49.814469,40.2509755 L49.814469,40.2509755 Z" id="Hat3-3" fill="#F10C1E" transform="translate(25.471515, 34.894759) rotate(34.000000) translate(-25.471515, -34.894759) "></path>
                <path d="M48.9265179,40.4070401 C48.9265179,40.4070401 48.9818053,40.3311502 49.0890689,40.1842534 C49.1857967,40.0329703 49.3282797,39.8059628 49.4450756,39.4889139 C49.5605671,39.1731062 49.6539838,38.766595 49.6332133,38.2871731 C49.6144497,37.8094893 49.4945433,37.2583156 49.1998444,36.6918316 C48.9120689,36.1246026 48.4584312,35.5428082 47.8350179,35.0143932 C47.5232612,34.7503098 47.1671541,34.5021989 46.7740215,34.2751915 C46.382394,34.0477703 45.9431049,33.8456733 45.486758,33.6767625 C45.4249486,33.6546659 45.362838,33.6324866 45.3004264,33.6102244 L45.2067088,33.5767898 L45.1832292,33.5684312 C45.1732955,33.5646243 45.1857377,33.5700864 45.1691816,33.5642933 L45.1216204,33.5493967 C44.994389,33.5097552 44.8661544,33.4699482 44.7370166,33.4297275 C44.4787412,33.349617 44.2166527,33.2684305 43.9507514,33.1860028 C43.4176444,33.0245403 42.8786173,32.8418916 42.305073,32.6968982 C41.7369473,32.5435461 41.1541718,32.3863871 40.5576498,32.2254212 C39.9559101,32.0786898 39.3355071,31.9421378 38.7075786,31.7930064 C36.1816164,31.230412 33.4207578,30.7340247 30.4790864,30.3592928 C27.5389201,29.9793471 24.4120209,29.7352086 21.1705332,29.6943258 C17.9308516,29.6440911 14.5719659,29.7866018 11.1952197,30.1746579 C10.7782062,30.2291959 10.3602895,30.2838995 9.94177093,30.3387686 C9.73226078,30.366079 9.52254988,30.3933894 9.31273869,30.4206998 C9.10272684,30.448093 8.89391904,30.4725896 8.67748538,30.5122311 C8.24823036,30.5844795 7.8182729,30.6568935 7.3879141,30.7293902 L6.74192438,30.8383835 L6.44321184,30.8888664 L6.16165745,30.9464666 C5.41562863,31.1116531 4.69669164,31.3634054 4.05933117,31.7140545 C3.42066629,32.0608139 2.85524969,32.4959598 2.41967321,32.9983058 C1.98520048,33.5000724 1.68337738,34.0692875 1.5713978,34.6494268 C1.51480598,34.9391655 1.50537401,35.2312213 1.55002536,35.5153323 C1.56547774,35.5855945 1.56999304,35.6579257 1.59206787,35.7270293 C1.61093182,35.7955536 1.6268859,35.8716089 1.64926174,35.9258988 L1.67846072,36.0152782 C1.68086888,36.0275265 1.69301004,36.0522715 1.70194031,36.0728784 L1.73053725,36.1367682 L1.78753044,36.2646306 C1.76956955,36.2278029 1.79054064,36.2694306 1.79013928,36.2680236 L1.80408655,36.2942582 L1.83168009,36.3465618 C2.12527529,36.9059285 2.57349462,37.4078608 3.14051666,37.8127996 C3.70563224,38.2188144 4.37911515,38.534291 5.10387187,38.7396983 C5.82852824,38.9458506 6.60084617,39.0473128 7.36935118,39.0432576 C7.56150251,39.0429266 7.75345318,39.0347335 7.94450078,39.0206645 C8.13574905,39.0068438 8.32870313,38.9849127 8.5012881,38.9616575 C8.52426598,38.9585126 8.54413333,38.9566919 8.56961976,38.9526368 L8.64838671,38.9393126 L8.8058204,38.9129125 L9.10463325,38.8622641 C9.31765534,38.8256847 9.5303764,38.7892709 9.74279643,38.752857 C9.95511617,38.7165259 10.1670345,38.6802775 10.3787522,38.6439464 L10.6958269,38.5897394 L10.8541637,38.5626773 L11.0137045,38.5409944 C11.4388456,38.4836426 11.8625819,38.4264562 12.2848132,38.3695182 C12.4959288,38.3417112 12.7061414,38.3113388 12.9168556,38.285849 C13.1283726,38.2648283 13.3394882,38.2438075 13.5502025,38.2229523 C13.9714303,38.1812419 14.3909524,38.1396969 14.8088689,38.0983175 C15.2276887,38.0651313 15.6460066,38.0430347 16.0616155,38.0151449 C16.4776256,37.9913931 16.8905252,37.9544827 17.3039265,37.949269 C18.1297257,37.9287448 18.946394,37.889186 19.7556371,37.9067309 C20.1599074,37.9092137 20.5619703,37.9116965 20.9618257,37.914262 C21.361079,37.9303172 21.7580245,37.9463724 22.152562,37.9622621 C22.3497303,37.9707862 22.5462966,37.9793104 22.7422608,37.9877518 C22.8400925,37.9927173 22.9380244,37.9952828 23.0354547,38.0021518 L23.3271434,38.0253243 C23.7150584,38.0563588 24.1005651,38.0870624 24.4833627,38.1176003 C24.6747113,38.1335728 24.8656586,38.146566 25.055201,38.1648556 C25.2442418,38.1866212 25.4326806,38.2081385 25.6205173,38.2297386 C25.995689,38.2735179 26.3681515,38.3168836 26.7379049,38.3599181 C26.8302178,38.3710906 26.9223301,38.3823458 27.0142416,38.3935182 C27.1056515,38.4077528 27.1967603,38.4219045 27.2877688,38.436139 C27.4697858,38.4645253 27.651,38.4929115 27.8315119,38.5210496 C28.1922347,38.5774083 28.5500476,38.6333533 28.9048502,38.6888845 C29.6100406,38.8181537 30.3002803,38.9551195 30.9768738,39.088775 C31.6461424,39.2454374 32.3028685,39.3991206 32.9461491,39.5497416 C33.5805997,39.7218799 34.201705,39.8904596 34.8089634,40.0552324 C35.4065892,40.2405294 35.9904684,40.4215229 36.5595976,40.5978819 C36.7027829,40.6393441 36.8413527,40.690489 36.980123,40.7380753 C37.1186928,40.7861582 37.256259,40.8339101 37.3929223,40.8813309 C37.6660481,40.9761724 37.9352607,41.0696899 38.200861,41.1618832 C38.33331,41.2082282 38.4648559,41.254242 38.5953984,41.2999249 C38.7228303,41.3495802 38.8494596,41.3989045 38.9750854,41.447815 C39.2268388,41.5449738 39.4745786,41.640643 39.7186057,41.7349053 C39.9633352,41.8287538 40.2042519,41.9211126 40.4410546,42.011899 C40.6720375,42.1012785 40.9027195,42.1842029 41.1364116,42.2499961 C41.6013878,42.3873757 42.0659625,42.483707 42.5197006,42.5394864 C43.4271767,42.6526177 44.2830779,42.6229073 45.0293075,42.4986863 C45.777042,42.3764515 46.41661,42.1660786 46.9301507,41.9267402 C47.4476048,41.6907948 47.8385299,41.4253045 48.1310214,41.1939109 C48.4237135,40.9608621 48.6155638,40.7573582 48.7414907,40.6232889 C48.8646079,40.4792886 48.9282236,40.4048884 48.9282236,40.4048884 L48.9265179,40.4070401 Z" id="Hat2-3" fill="#FFFFFF" transform="translate(25.578995, 36.147329) rotate(34.000000) translate(-25.578995, -36.147329) "></path>
                <path d="M47.0244054,25.6075566 C46.6176099,25.443363 46.2008293,25.2985351 45.8056509,25.1652107 C45.6083499,25.0974312 45.4141211,25.0397484 45.2307414,24.978424 C45.0452496,24.9258722 44.870991,24.8629755 44.7065254,24.8179548 C44.3735617,24.7219545 44.0961881,24.6420922 43.9018633,24.5861472 C43.7013938,24.5306161 43.5868536,24.4989195 43.5868536,24.4989195 C43.5868536,24.4989195 43.7042741,24.4667263 43.9149206,24.4395815 C44.0199559,24.4272504 44.1490897,24.4104503 44.2963695,24.4053193 C44.4439372,24.3980365 44.6118592,24.390671 44.7931267,24.3995262 C44.9760262,24.4008503 45.1716952,24.4168228 45.3797494,24.4361055 C45.5855954,24.4628366 45.8051709,24.4895678 46.0263786,24.5363265 C46.2480663,24.5819266 46.4778189,24.630837 46.7034431,24.7018441 C46.9330996,24.7630028 47.1572836,24.8459272 47.3805075,24.9310032 L47.3999016,24.9390308 C47.4139191,24.3279398 47.2968826,23.8171524 47.104766,23.3960756 C46.9096732,23.2193855 46.7133321,23.0466679 46.5214076,22.8835503 C46.3712475,22.754281 46.2190712,22.6350255 46.0788002,22.5163494 C45.9320965,22.4049561 45.8013305,22.2879351 45.6706605,22.1904452 C45.4084565,21.989093 45.1901291,21.8213409 45.0372807,21.7038234 C44.8784797,21.5847335 44.78775,21.5164574 44.78775,21.5164574 C44.78775,21.5164574 44.9102591,21.5267195 45.1165853,21.573561 C45.2186442,21.5981404 45.3448977,21.6265266 45.4824804,21.6719612 C45.6216953,21.7152441 45.7790561,21.7658097 45.9415055,21.8356582 C46.1088515,21.8990514 46.2817659,21.9802378 46.4638974,22.0688725 C46.6411324,22.1633831 46.8302726,22.2626109 47.0121161,22.3807905 C47.1083184,22.4424458 47.2058648,22.5063356 47.3022592,22.5731219 C49.655567,21.5612299 51.3585012,22.3404042 51.9855443,22.7250671 C52.1436732,21.8641272 52.5598778,21.0395184 53.2152439,20.3435995 C51.7043302,18.7368372 49.1207897,16.0621552 46.9660312,14.1965233 C43.6970734,11.3662547 36.2317944,7.07612067 26.9828366,13.6033081 C18.8986755,19.3084524 14.2962309,29.6379107 13.2651766,32.1493095 C13.811091,31.908978 14.4096191,31.7144948 15.0553842,31.5783565 C27.6045992,28.92544 40.8436479,30.0526978 52.5480685,34.7706122 C53.383934,35.106944 54.1059312,35.5378691 54.7051313,36.0294564 C55.000363,32.1858062 49.8718782,28.8523641 47.5940343,25.8382881 C47.4046061,25.7632259 47.2210345,25.6743429 47.0244054,25.6075566" id="Hat1-3" fill="#F10C1E" transform="translate(33.991267, 23.101700) rotate(34.000000) translate(-33.991267, -23.101700) "></path>
            </g>
            <path d="M65.6027276,50.7616853 L65.531797,50.7204533 C65.6223344,50.6685529 65.6973017,50.5979106 65.7466071,50.5122749 C65.8397396,50.3508069 65.8532914,50.1472418 65.7644839,49.967897 C65.6234878,49.6824446 65.2774849,49.5653803 64.9920325,49.7063765 L64.3369336,50.0304658 L63.6922149,49.6582244 L65.017406,49.1919855 C65.1523471,49.1441217 65.2584547,49.051566 65.3247719,48.9362316 C65.4057943,48.7958121 65.4277078,48.621369 65.369464,48.456441 C65.2639331,48.1557068 64.9343653,47.9979871 64.6339194,48.1038063 L62.3765388,48.898748 L62.2165125,48.8064806 L62.7228301,48.2303857 C62.7487803,48.2012638 62.7706938,48.1701235 62.7891473,48.1378299 C62.9240884,47.9045663 62.879973,47.6012371 62.6703529,47.4169906 C62.4310343,47.2065055 62.0665779,47.230149 61.8566694,47.4694677 L61.1983989,48.218564 L60.412684,47.7658768 L60.412684,46.1062162 L61.1983989,45.6535291 L61.8566694,46.4029137 C62.0668662,46.6422324 62.4310343,46.6655876 62.6703529,46.4553908 C62.8802614,46.2708559 62.9240884,45.967815 62.7891473,45.7345514 C62.7706938,45.7022578 62.7484919,45.6711176 62.7228301,45.6419956 L62.2165125,45.0659008 L62.3765388,44.9736334 L64.6339194,45.768575 C64.9343653,45.8743943 65.2639331,45.7166746 65.369464,45.4159404 C65.4277078,45.250724 65.4057943,45.0765692 65.3247719,44.9358614 C65.2584547,44.8208154 65.1520588,44.7279713 65.017406,44.6803959 L63.6922149,44.2138686 L64.3369336,43.8416272 L64.9920325,44.1657166 C65.2771965,44.3067128 65.6231994,44.1896484 65.7644839,43.904196 C65.8535797,43.7245629 65.8400279,43.5212862 65.7466071,43.3598181 C65.6973017,43.2741824 65.6223344,43.2035402 65.531797,43.1516397 L65.6027276,43.1104077 C65.8786649,42.9512464 65.9729507,42.5986117 65.8137894,42.3226744 C65.6543397,42.0467371 65.3019934,41.952163 65.0260561,42.1116126 L64.9568555,42.1516913 C64.9574322,41.8492271 64.7247452,41.5946266 64.419686,41.5750198 C64.10194,41.5542596 63.8277327,41.7955967 63.8072608,42.1133427 L63.7602621,42.8428321 L63.1155434,43.2150736 L63.3738922,41.834522 C63.4324243,41.5213894 63.2262643,41.2200785 62.9131317,41.1615463 C62.599999,41.1030142 62.2986882,41.3094626 62.240156,41.6223069 L61.7998673,43.97455 L61.639841,44.0671057 L61.3941789,43.3404996 C61.293838,43.0383238 60.9645586,42.8771441 60.6632478,42.9792149 C60.3613602,43.0812858 60.1996039,43.4085469 60.3016747,43.7104344 L60.6211507,44.6550223 L59.8256324,45.1131879 L58.3943337,44.2946027 L58.3943337,43.3719282 L59.3726569,43.1764366 C59.6849245,43.1141561 59.8873362,42.8102502 59.8247674,42.4979826 C59.7624868,42.1857149 59.4597343,41.9827266 59.146025,42.0455838 L58.3943337,42.196095 L58.3943337,42.0112718 L60.2114256,40.4539704 C60.4533393,40.246657 60.4813079,39.8827773 60.2739945,39.6408636 C60.0666811,39.3992382 59.7028013,39.3709813 59.4608876,39.5782947 L58.3943337,40.4920307 L58.3943337,39.7478361 L59.0024338,39.342436 C59.2674144,39.1656862 59.33921,38.8078616 59.1624601,38.542881 C58.992342,38.2877039 58.6555659,38.2138899 58.3943337,38.3661312 L58.3943337,38.2859738 C58.3943337,37.9676512 58.1359849,37.7093023 57.8176622,37.7093023 C57.4993395,37.7093023 57.2409907,37.9676512 57.2409907,38.2859738 L57.2409907,38.3661312 C56.9797585,38.2144666 56.642694,38.2879922 56.4728642,38.542881 C56.2961144,38.8078616 56.36791,39.1659746 56.6328906,39.342436 L57.2409907,39.7478361 L57.2409907,40.4920307 L56.174725,39.5780064 C55.9328113,39.370693 55.5686433,39.3989499 55.3616182,39.6405752 C55.1543048,39.8824889 55.1822734,40.246657 55.4241871,40.453682 L57.2409907,42.0112718 L57.2409907,42.196095 L56.489011,42.0458721 C56.1773201,41.9830149 55.8728375,42.1860033 55.810557,42.4982709 C55.7479881,42.8105385 55.9503998,43.1144444 56.2629558,43.1767249 L57.2409907,43.3719282 L57.2409907,44.2946027 L55.8094036,45.1126112 L55.0141736,44.6544457 L55.3336496,43.7098577 C55.4360088,43.4079702 55.2739641,43.0807091 54.9723649,42.9786383 C54.6710541,42.8765674 54.3414863,43.0380354 54.2414338,43.339923 L53.9954834,44.0665291 L53.8354571,43.9739733 L53.3951684,41.6217302 C53.3366362,41.3088859 53.035037,41.1027258 52.7221927,41.1609697 C52.4093484,41.2195018 52.2031883,41.521101 52.2614322,41.8339453 L52.519781,43.2144969 L51.8753506,42.8422555 L51.8280635,42.112766 C51.8075917,41.7947316 51.5333844,41.553683 51.2156384,41.5744431 C50.9102908,41.59405 50.6778922,41.8489388 50.6784689,42.1511146 L50.6092683,42.1116126 C50.333331,41.9524513 49.9806963,42.0470254 49.821535,42.3226744 C49.6623737,42.5983234 49.7566595,42.9512464 50.0325968,43.1104077 L50.1038157,43.1516397 C50.0129899,43.2035402 49.938311,43.2741824 49.8887172,43.3598181 C49.7955848,43.5212862 49.782033,43.7248512 49.8708404,43.904196 C50.0118366,44.1896484 50.3578395,44.3067128 50.6432919,44.1657166 L51.2986791,43.8416272 L51.9431095,44.2138686 L50.6182067,44.6803959 C50.4832656,44.7279713 50.3768697,44.8208154 50.3105524,44.9358614 C50.2295301,45.0765692 50.2076166,45.250724 50.2658604,45.4159404 C50.3716796,45.7163863 50.7009591,45.8741059 51.0014049,45.768575 L53.2587855,44.9736334 L53.4188119,45.0659008 L52.9124943,45.6419956 C52.8868324,45.6711176 52.8643422,45.7022578 52.8458887,45.7345514 C52.7112359,45.967815 52.755063,46.2711443 52.9649714,46.4553908 C53.2042901,46.6655876 53.5684581,46.6422324 53.7786549,46.4029137 L54.4372138,45.6535291 L55.2226404,46.1062162 L55.2226404,47.7658768 L54.4372138,48.2182756 L53.7786549,47.4691793 C53.5684581,47.2298606 53.2042901,47.2062171 52.9649714,47.4167022 C52.755063,47.6009488 52.7112359,47.904278 52.8458887,48.1375416 C52.8643422,48.1698352 52.8868324,48.2012638 52.9124943,48.2300974 L53.4188119,48.8061922 L53.2587855,48.8984597 L51.0014049,48.1040947 C50.7009591,47.9982754 50.3716796,48.1559951 50.2658604,48.4567293 C50.2076166,48.6216573 50.2295301,48.7961005 50.3105524,48.93652 C50.3768697,49.051566 50.4832656,49.1444101 50.6182067,49.1922738 L51.9431095,49.6585127 L51.2986791,50.0307542 L50.6432919,49.7066648 C50.3578395,49.5656686 50.0121249,49.6827329 49.8708404,49.9681853 C49.782033,50.1475302 49.7952964,50.3510952 49.8887172,50.5125632 C49.9380226,50.5981989 50.0127016,50.6688412 50.1038157,50.7207416 L50.0325968,50.7616853 C49.7566595,50.9208467 49.6623737,51.2734813 49.821535,51.5494186 C49.9806963,51.8250676 50.333331,51.9196417 50.6092683,51.7604804 L50.6787572,51.7201134 C50.6781805,52.0225776 50.9105791,52.2774664 51.2159267,52.2970732 C51.5336727,52.3175451 51.80788,52.076208 51.8283519,51.7587504 L51.8756389,51.0292609 L52.5200693,50.6573078 L52.2617205,52.037571 C52.2034767,52.3507037 52.4096367,52.6520145 52.722481,52.7105467 C53.0353253,52.7690789 53.3369245,52.5629188 53.3954567,52.2497862 L53.8357454,49.8975431 L53.9957717,49.8052756 L54.2417221,50.5318817 C54.3417746,50.8340576 54.6710541,50.9952373 54.9726533,50.8934548 C55.2745408,50.7913839 55.4362972,50.4641228 55.333938,50.1622353 L55.014462,49.2176473 L55.809692,48.7594818 L57.2409907,49.577202 L57.2409907,50.5001648 L56.2629558,50.6956564 C55.9506882,50.7582253 55.7479881,51.0618428 55.810557,51.3743988 C55.8728375,51.6863781 56.1773201,51.8908081 56.489011,51.8265093 L57.2409907,51.675998 L57.2409907,51.8608212 L55.4238987,53.4181226 C55.1822734,53.625436 55.1540165,53.9893158 55.3613299,54.2312295 C55.5686433,54.4731432 55.932523,54.5008234 56.1744367,54.2937983 L57.2409907,53.3800623 L57.2409907,54.1242569 L56.6328906,54.529657 C56.36791,54.7064068 56.2964027,55.0642315 56.4728642,55.329212 C56.642694,55.5838125 56.9794701,55.6576265 57.2409907,55.5059618 L57.2409907,55.5861192 C57.2409907,55.9044419 57.4993395,56.1627907 57.8176622,56.1627907 C58.1359849,56.1627907 58.3943337,55.9044419 58.3943337,55.5861192 L58.3943337,55.5039435 C58.4848711,55.5567089 58.5831936,55.5861192 58.6820928,55.5861192 C58.8683577,55.5861192 59.0514509,55.4958701 59.1624601,55.329212 C59.33921,55.0642315 59.2674144,54.7064068 59.0024338,54.529657 L58.3943337,54.1242569 L58.3943337,53.3800623 L59.4605993,54.2940867 C59.5695902,54.3872191 59.7030897,54.4327762 59.8357241,54.4327762 C59.9980572,54.4327762 60.1598135,54.3647289 60.2739945,54.2315178 C60.4813079,53.9896041 60.4533393,53.625436 60.2114256,53.418411 L58.3943337,51.8608212 L58.3943337,51.675998 L59.146025,51.8262209 C59.1843737,51.8342943 59.222434,51.8377544 59.2599176,51.8377544 C59.5292232,51.8377544 59.7702719,51.6483178 59.8247674,51.3743988 C59.8873362,51.0618428 59.6849245,50.7582253 59.3726569,50.6956564 L58.3943337,50.5001648 L58.3943337,49.577202 L59.8259207,48.7591935 L60.6214391,49.217359 L60.301963,50.1619469 C60.1998922,50.4638345 60.3616486,50.7910956 60.6635361,50.8931664 C60.964847,50.9952373 61.2944147,50.8337693 61.3944672,50.5315934 L61.6401293,49.8049873 L61.8001556,49.8972547 L62.2404443,52.2494978 C62.2989765,52.5626305 62.6002874,52.7687905 62.91342,52.7102584 C63.2265526,52.6517262 63.4327127,52.3504153 63.3741805,52.0372827 L63.1158317,50.6570194 L63.7605504,51.0289726 L63.8075492,51.758462 C63.828021,52.076208 64.1022283,52.3172567 64.4199743,52.2967849 C64.7253219,52.2771781 64.9577205,52.0222892 64.9571438,51.719825 L65.0263444,51.760192 C65.3022817,51.9193534 65.6549164,51.8247793 65.8140777,51.5491303 C65.9729507,51.2734813 65.8786649,50.9208467 65.6027276,50.7616853 Z M56.3759834,47.7549201 L56.3759834,46.1174613 L57.8176622,45.293686 L59.259341,46.1174613 L59.259341,47.7549201 L57.8176622,48.578407 L56.3759834,47.7549201 Z" id="Snowflake" fill="#0DB14B"></path>
        </g>
    </g>
</svg>
